<svg width="82" height="40" viewBox="0 0 82 40" fill="none" xmlns="http://www.w3.org/2000/svg">
<path d="M33.8824 28.7059H19.7647V3.29411H16.9412V0.470585H2.82353V3.29411H8.47059V6.11765H5.64706V8.94118H2.82353V3.29411H0V37.1765H2.82353V40H33.8824V37.1765H36.7059V31.5294H33.8824V28.7059ZM79.0809 0.470585H48.0221V3.29411H50.8456V6.11765H48.0221V8.94118H45.1985V6.11765H42.375V20.2353H45.1985V23.0588H67.7868V25.8824H45.1985V28.7059H42.375V37.1765H45.1985V40H76.2574V37.1765H79.0809V34.3529H81.9044V17.4118H79.0809V14.5882H62.1397V11.7647H79.0809V8.94118H81.9044V3.29411H79.0809V0.470585Z" fill="#00B2FF"/>
</svg>
